<?xml version="1.0" encoding="UTF-8" standalone="no"?><!DOCTYPE svg PUBLIC "-//W3C//DTD SVG 1.1//EN" "http://www.w3.org/Graphics/SVG/1.1/DTD/svg11.dtd"><svg width="100%" height="100%" viewBox="0 0 679 101" version="1.1" xmlns="http://www.w3.org/2000/svg" xmlns:xlink="http://www.w3.org/1999/xlink" xml:space="preserve" xmlns:serif="http://www.serif.com/" style="fill-rule:evenodd;clip-rule:evenodd;stroke-linejoin:round;stroke-miterlimit:1.41421;"><g><path d="M6.547,95.33c3.78,3.42 8.64,5.4 13.86,5.4l25.02,0c23.22,0 42.3,-19.26 42.3,-42.3l0,-16.02c0,-22.86 -19.08,-42.3 -42.3,-42.3l-25.02,0c-5.22,0 -10.08,1.98 -13.86,5.4l-0.54,0.54c-3.78,3.78 -5.94,9 -5.94,14.4l0,59.94c0,5.4 2.16,10.62 5.94,14.4l0.54,0.54Zm4.5,-2.34l-1.62,-1.62c-2.88,-2.88 -4.5,-6.84 -4.5,-10.98l0,-59.94c0,-4.14 1.62,-8.1 4.5,-10.98l1.62,-1.62l0,0.18c2.7,-1.98 5.94,-3.06 9.36,-3.06l25.02,0c20.34,0 37.62,16.74 37.62,37.44l0,16.02c0,20.7 -17.28,37.44 -37.62,37.44l-25.02,0c-3.42,0 -6.66,-1.08 -9.36,-3.06l0,0.18Z" style="fill-rule:nonzero;"/><path d="M107.167,72.83l67.86,0c2.34,0 4.32,-1.98 4.32,-4.5l0,-12.6c0,-16.92 -14.22,-31.14 -31.14,-31.14l-13.86,0c-16.92,0 -31.14,14.22 -31.14,31.14l0,12.42c0,17.28 12.96,32.58 31.14,32.58l33.48,0c1.26,0 2.34,-1.08 2.34,-2.52c0,-1.26 -1.08,-2.34 -2.34,-2.34l-33.48,0c-10.08,0 -19.8,-6.12 -23.94,-15.66l-3.24,-7.38Zm67.32,-4.86l-66.42,0l0,-12.24c0,-14.4 12.24,-26.28 26.28,-26.28l13.86,0c14.22,0 26.28,12.06 26.28,26.28l0,12.24Z" style="fill-rule:nonzero;"/><path d="M219.307,91.73c2.34,5.4 7.38,9 13.5,9c5.76,0 10.98,-3.24 13.32,-9l26.82,-64.08c0.18,-0.18 0.18,-0.54 0.18,-0.9c0,-1.26 -1.08,-2.16 -2.34,-2.16c-0.72,0 -1.62,0.54 -1.8,1.26l-26.82,64.26c-1.8,3.78 -5.22,6.12 -9.36,6.12c-4.5,0 -7.74,-2.34 -9.36,-6.12l-26.82,-64.26c-0.36,-0.72 -1.26,-1.26 -1.98,-1.26c-1.44,0 -2.34,1.08 -2.34,2.16c0,0.36 0,0.72 0.18,0.9l26.82,64.08Z" style="fill-rule:nonzero;"/><path d="M333.967,8.39c0,-2.16 1.8,-3.96 4.14,-3.96c1.26,0 2.16,0.72 2.88,1.62l70.92,91.44c1.26,1.98 3.96,3.24 6.48,3.24c4.5,0 8.28,-3.78 8.28,-8.28l0,-89.82c0,-1.26 -0.9,-2.16 -2.16,-2.16c-1.26,0 -2.16,0.9 -2.16,2.16l0,89.82c0,2.16 -1.8,3.96 -4.14,3.96c-1.26,0 -2.34,-0.72 -2.88,-1.62l-70.92,-91.44c-1.26,-1.98 -3.96,-3.24 -6.48,-3.24c-4.14,0 -8.28,3.24 -8.28,8.28l0,89.82c0,1.26 0.9,2.16 2.16,2.16c1.26,0 2.16,-0.9 2.16,-2.16l0,-89.82Z" style="fill-rule:nonzero;"/><path d="M478.687,24.59c-16.92,0 -31.14,14.22 -31.14,31.14l0,13.86c0,16.92 14.22,31.14 31.14,31.14l13.86,0c16.92,0 31.14,-14.22 31.14,-31.14l0,-13.86c0,-16.92 -14.22,-31.14 -31.14,-31.14l-13.86,0Zm13.86,4.86c14.04,0 26.28,11.88 26.28,26.28l0,13.86c0,14.22 -12.06,26.28 -26.28,26.28l-13.86,0c-14.22,0 -26.28,-12.24 -26.28,-26.28l0,-13.86c0,-14.58 12.42,-26.28 26.28,-26.28l13.86,0Z" style="fill-rule:nonzero;"/><path d="M547.087,60.95l0,-31.68l30.96,0c1.44,0 2.52,-1.08 2.52,-2.52c0,-1.26 -1.08,-2.34 -2.52,-2.34l-30.96,0l0,-21.96c0,-1.26 -1.08,-2.34 -2.52,-2.34c-1.26,0 -2.34,1.08 -2.34,2.34l0,67.5c0,16.92 13.86,30.78 30.78,30.78l6.84,0c1.26,0 2.34,-1.08 2.34,-2.34c0,-1.44 -1.08,-2.52 -2.34,-2.52l-6.84,0c-14.22,0 -25.92,-11.7 -25.92,-25.92l0,-9Z" style="fill-rule:nonzero;"/><path d="M606.127,72.83l67.86,0c2.34,0 4.32,-1.98 4.32,-4.5l0,-12.6c0,-16.92 -14.22,-31.14 -31.14,-31.14l-13.86,0c-16.92,0 -31.14,14.22 -31.14,31.14l0,12.42c0,17.28 12.96,32.58 31.14,32.58l33.48,0c1.26,0 2.34,-1.08 2.34,-2.52c0,-1.26 -1.08,-2.34 -2.34,-2.34l-33.48,0c-10.08,0 -19.8,-6.12 -23.94,-15.66l-3.24,-7.38Zm67.32,-4.86l-66.42,0l0,-12.24c0,-14.4 12.24,-26.28 26.28,-26.28l13.86,0c14.22,0 26.28,12.06 26.28,26.28l0,12.24Z" style="fill-rule:nonzero;"/></g></svg>